<svg width="55" height="51" viewBox="0 0 55 51" fill="none" xmlns="http://www.w3.org/2000/svg">
<path d="M29.0512 50.4916V14.2287H10.4309L0.4375 0.913452H43.4996V14.2287H41.7998V50.4916H29.0512Z" fill="white"/>
<path d="M54.9517 45.6584C54.9517 46.3113 54.8073 46.8889 54.5185 47.3911C54.2234 47.8871 53.8216 48.2795 53.3131 48.5683C52.7983 48.8508 52.2082 48.992 51.5427 48.992C50.8772 48.992 50.2902 48.8508 49.7817 48.5683C49.2669 48.2795 48.8651 47.8871 48.5763 47.3911C48.2813 46.8889 48.1337 46.3113 48.1337 45.6584C48.1337 45.1812 48.2185 44.7449 48.388 44.3494C48.5512 43.9476 48.7835 43.6023 49.0849 43.3135C49.3862 43.0185 49.7346 42.7925 50.1302 42.6355L50.6104 44.0575C50.3907 44.1517 50.1992 44.2804 50.036 44.4436C49.8728 44.6005 49.7472 44.7826 49.6593 44.9898C49.5714 45.1907 49.5275 45.4135 49.5275 45.6584C49.5275 46.0037 49.6122 46.3113 49.7817 46.5813C49.9512 46.8512 50.1898 47.0615 50.4974 47.2122C50.7988 47.3629 51.1472 47.4382 51.5427 47.4382C51.9382 47.4382 52.2898 47.3629 52.5974 47.2122C52.8988 47.0552 53.1373 46.8418 53.3131 46.5718C53.4826 46.2956 53.5674 45.9817 53.5674 45.6301C53.5674 45.3727 53.5203 45.1436 53.4261 44.9427C53.3319 44.7418 53.2001 44.5691 53.0306 44.4247C52.8611 44.2741 52.6665 44.1454 52.4468 44.0386L52.927 42.6167C53.3288 42.7673 53.6835 42.9902 53.9911 43.2853C54.2925 43.5804 54.5279 43.9288 54.6974 44.3306C54.8669 44.7324 54.9517 45.175 54.9517 45.6584Z" fill="white"/>
<path d="M54.8391 38.3671H48.2472V35.7774C48.2472 35.3003 48.3413 34.8765 48.5297 34.5061C48.7118 34.1357 48.9692 33.8469 49.3019 33.6398C49.6283 33.4263 50.005 33.3196 50.4319 33.3196C50.8588 33.3196 51.2387 33.4263 51.5714 33.6398C51.9041 33.8532 52.1647 34.1483 52.353 34.525C52.5351 34.8954 52.6261 35.3223 52.6261 35.8057V36.851H54.8391V38.3671ZM54.8391 34.7886L52.2212 36.2765L51.383 35.1371L54.8391 33.0559V34.7886ZM51.2324 36.851V35.8245C51.2324 35.6487 51.1979 35.4918 51.1288 35.3537C51.0597 35.2155 50.9656 35.1088 50.8463 35.0335C50.7207 34.9519 50.5826 34.9111 50.4319 34.9111C50.1997 34.9111 50.0082 34.999 49.8575 35.1747C49.7068 35.3442 49.6315 35.5703 49.6315 35.8528V36.851H51.2324Z" fill="white"/>
<path d="M54.8391 28.8063H48.2472V24.5122H49.6409V27.2902H50.8463V24.9642H52.1929V27.2902H53.4454V24.4651H54.8391V28.8063Z" fill="white"/>
<path d="M54.9517 17.6447C54.9517 17.9649 54.9109 18.2725 54.8293 18.5675C54.7414 18.8563 54.6252 19.12 54.4808 19.3586C54.3302 19.5909 54.1638 19.7823 53.9817 19.933C53.7934 20.0837 53.5925 20.1779 53.379 20.2155L52.9553 18.7182C53.1373 18.6492 53.2974 18.5299 53.4355 18.3604C53.5674 18.1846 53.6364 17.9649 53.6427 17.7012C53.649 17.4438 53.5893 17.2303 53.4638 17.0608C53.3382 16.885 53.175 16.7971 52.9741 16.7971C52.8171 16.7971 52.679 16.8599 52.5598 16.9855C52.4405 17.1048 52.3494 17.2774 52.2867 17.5034L52.0512 18.4357C51.9696 18.7622 51.8409 19.0478 51.6651 19.2927C51.4893 19.5312 51.2759 19.7196 51.0248 19.8577C50.7674 19.9895 50.4755 20.0554 50.149 20.0554C49.5149 20.0554 49.0221 19.8451 48.6705 19.4245C48.3127 19.0039 48.1337 18.4106 48.1337 17.6447C48.1337 17.224 48.1934 16.8568 48.3127 16.5429C48.4257 16.229 48.5952 15.9622 48.8212 15.7424C49.0472 15.5164 49.3297 15.3375 49.6687 15.2057L50.1113 16.6936C49.9418 16.7438 49.788 16.8536 49.6499 17.0231C49.5118 17.1864 49.4427 17.3998 49.4427 17.6635C49.4427 17.9272 49.5023 18.1344 49.6216 18.285C49.7409 18.4294 49.9136 18.5016 50.1396 18.5016C50.2965 18.5016 50.4284 18.442 50.5351 18.3227C50.6356 18.2034 50.7109 18.0402 50.7611 17.833L50.9965 16.9007C51.1284 16.3671 51.3764 15.9527 51.7405 15.6577C52.0983 15.3563 52.5064 15.2057 52.9647 15.2057C53.3791 15.2057 53.7337 15.303 54.0288 15.4976C54.3239 15.6859 54.553 15.9622 54.7163 16.3263C54.8732 16.6904 54.9517 17.1299 54.9517 17.6447Z" fill="white"/>
<path d="M54.8391 9.03502H49.6409V10.9561H48.2472V5.60721H49.6409V7.52829H54.8391V9.03502Z" fill="white"/>
</svg>
