<svg width="495" height="86" viewBox="0 0 495 86" fill="none" xmlns="http://www.w3.org/2000/svg">
<path d="M43.4079 70.5137H60.0656L65.6208 85.1649H43.4079V70.5137Z" fill="white"/>
<path d="M297.79 70.5137H314.448L320.003 85.1649H297.79V70.5137Z" fill="white"/>
<path d="M65.5909 85.1647L34.2195 1.34798H53.3776L85.9463 85.1647H65.5909ZM0.213867 85.1647L32.7826 1.34798H51.9407L20.5693 85.1647H0.213867Z" fill="white"/>
<path d="M209.167 85.1647L239.7 1.34798H260.535L227.846 85.1647H209.167ZM207.012 85.1647L181.388 37.2694H202.103L225.691 85.1647H207.012Z" fill="white"/>
<path d="M319.997 85.1647L288.625 1.34798H307.784L340.352 85.1647H319.997ZM254.62 85.1647L287.189 1.34798H306.347L274.975 85.1647H254.62Z" fill="white"/>
<path d="M353.095 85.1647V1.34798H373.331L410.09 52.4762H429.368V85.1647H410.09L372.373 32.5996V85.1647H353.095Z" fill="white"/>
<path d="M451.213 85.1646V23.8587H419.734L402.839 1.34799H475.639V23.8587H472.766V85.1646H451.213Z" fill="white"/>
<path fill-rule="evenodd" clip-rule="evenodd" d="M190.296 85.1649H94.8631V0.415161H145.775L190.296 85.1649ZM113.728 19.3797V66.4322H159.136L134.096 19.3797H113.728Z" fill="white"/>
<path d="M495 76.9937C495 78.0975 494.756 79.0739 494.268 79.923C493.769 80.7615 493.09 81.4249 492.23 81.9131C491.36 82.3907 490.362 82.6295 489.237 82.6295C488.112 82.6295 487.12 82.3907 486.26 81.9131C485.39 81.4249 484.71 80.7615 484.222 79.923C483.723 79.0739 483.474 78.0975 483.474 76.9937C483.474 76.187 483.617 75.4494 483.904 74.7807C484.18 74.1015 484.572 73.5177 485.082 73.0295C485.591 72.5306 486.18 72.1486 486.849 71.8832L487.661 74.2872C487.289 74.4464 486.966 74.664 486.69 74.9399C486.414 75.2053 486.202 75.5131 486.053 75.8633C485.904 76.203 485.83 76.5797 485.83 76.9937C485.83 77.5774 485.973 78.0975 486.26 78.5539C486.547 79.0103 486.95 79.3658 487.47 79.6206C487.979 79.8753 488.568 80.0026 489.237 80.0026C489.906 80.0026 490.5 79.8753 491.02 79.6206C491.53 79.3552 491.933 78.9943 492.23 78.538C492.517 78.071 492.66 77.5403 492.66 76.9459C492.66 76.5107 492.58 76.1234 492.421 75.7837C492.262 75.4441 492.039 75.1522 491.753 74.9081C491.466 74.6534 491.137 74.4358 490.765 74.2554L491.577 71.8514C492.257 72.1061 492.856 72.4829 493.376 72.9817C493.886 73.4806 494.284 74.0696 494.57 74.7489C494.857 75.4282 495 76.1764 495 76.9937Z" fill="white"/>
<path d="M494.81 64.6671H483.666V60.289C483.666 59.4823 483.825 58.7659 484.143 58.1397C484.451 57.5135 484.886 57.0253 485.449 56.675C486.001 56.3142 486.637 56.1337 487.359 56.1337C488.081 56.1337 488.723 56.3142 489.286 56.675C489.848 57.0359 490.289 57.5347 490.607 58.1715C490.915 58.7977 491.069 59.5195 491.069 60.3367V62.1039H494.81V64.6671ZM494.81 58.6173L490.384 61.1327L488.967 59.2064L494.81 55.688V58.6173ZM488.712 62.1039V60.3686C488.712 60.0714 488.654 59.806 488.537 59.5725C488.421 59.339 488.261 59.1586 488.06 59.0312C487.847 58.8933 487.614 58.8243 487.359 58.8243C486.966 58.8243 486.643 58.9729 486.388 59.2701C486.133 59.5566 486.006 59.9387 486.006 60.4163V62.1039H488.712Z" fill="white"/>
<path d="M494.81 48.5037H483.666V41.2439H486.022V45.9405H488.06V42.0081H490.336V45.9405H492.454V41.1643H494.81V48.5037Z" fill="white"/>
<path d="M495 29.6338C495 30.1751 494.931 30.6951 494.793 31.194C494.645 31.6822 494.448 32.128 494.204 32.5313C493.95 32.924 493.668 33.2477 493.361 33.5024C493.042 33.7572 492.702 33.9164 492.342 33.98L491.625 31.4487C491.933 31.3319 492.204 31.1303 492.437 30.8437C492.66 30.5465 492.777 30.1751 492.787 29.7293C492.798 29.2941 492.697 28.9333 492.485 28.6467C492.273 28.3495 491.997 28.2009 491.657 28.2009C491.392 28.2009 491.158 28.3071 490.957 28.5193C490.755 28.721 490.601 29.0129 490.495 29.395L490.097 30.9711C489.959 31.523 489.741 32.0059 489.444 32.4198C489.147 32.8232 488.786 33.1416 488.361 33.3751C487.926 33.5979 487.433 33.7094 486.881 33.7094C485.809 33.7094 484.976 33.3538 484.381 32.6427C483.776 31.9316 483.474 30.9286 483.474 29.6338C483.474 28.9226 483.575 28.3017 483.776 27.7711C483.967 27.2404 484.254 26.7893 484.636 26.4178C485.018 26.0357 485.496 25.7332 486.069 25.5104L486.817 28.0258C486.531 28.1107 486.271 28.2964 486.037 28.583C485.804 28.859 485.687 29.2198 485.687 29.6656C485.687 30.1114 485.788 30.4616 485.989 30.7163C486.191 30.9605 486.483 31.0825 486.865 31.0825C487.13 31.0825 487.353 30.9817 487.534 30.78C487.703 30.5784 487.831 30.3024 487.916 29.9522L488.314 28.376C488.537 27.4739 488.956 26.7734 489.571 26.2745C490.176 25.7651 490.866 25.5104 491.641 25.5104C492.342 25.5104 492.941 25.6749 493.44 26.0039C493.939 26.3223 494.326 26.7893 494.602 27.4049C494.868 28.0205 495 28.7634 495 29.6338Z" fill="white"/>
<path d="M494.81 15.0783H486.022V18.3261H483.666V9.28325H486.022V12.531H494.81V15.0783Z" fill="white"/>
</svg>
